<svg width="166" height="46" viewBox="0 0 166 46" fill="none" xmlns="http://www.w3.org/2000/svg">
  <path d="M35.9428 10.396H23.0365V45.3937H12.6701V10.396H0V2.39225H35.9428V10.396Z" fill="white"/>
  <path d="M52.9249 45.3937C52.5704 44.7439 52.2554 43.789 51.9798 42.5289C50.1487 44.8326 47.5891 45.9844 44.3009 45.9844C41.2885 45.9844 38.7289 45.0787 36.6221 43.2673C34.5154 41.4361 33.462 39.1423 33.462 36.3858C33.462 32.9205 34.7418 30.3018 37.3014 28.5298C39.861 26.7578 43.5823 25.8717 48.4652 25.8717H51.5368V24.1883C51.5368 21.2546 50.2668 19.7878 47.7269 19.7878C45.3642 19.7878 44.1828 20.9494 44.1828 23.2728H34.2299C34.2299 20.1815 35.5392 17.6712 38.1579 15.7416C40.7962 13.812 44.1533 12.8473 48.229 12.8473C52.3046 12.8473 55.5238 13.8416 57.8866 15.8302C60.2493 17.8188 61.4602 20.5458 61.5192 24.0111V38.1579C61.5586 41.0916 62.0115 43.3362 62.8778 44.8916V45.3937H52.9249ZM46.6932 38.8962C47.9336 38.8962 48.9575 38.6304 49.7647 38.0988C50.5917 37.5672 51.1824 36.9667 51.5368 36.2972V31.1879H48.6424C45.1771 31.1879 43.4445 32.7433 43.4445 35.8542C43.4445 36.7599 43.7496 37.4983 44.36 38.0693C44.9704 38.6206 45.7481 38.8962 46.6932 38.8962Z" fill="white"/>
  <path d="M77.5562 45.3937H67.5737V0.029534H77.5562V45.3937Z" fill="white"/>
  <path d="M96.5465 33.4915L93.7408 36.2972V45.3937H83.7878V0H93.7408V24.0997L94.7449 22.7707L102.247 13.438H114.178L102.985 26.5806L114.917 45.3937H103.517L96.5465 33.4915Z" fill="white"/>
  <path d="M132.312 45.3937V2.39225H147.758C153.291 2.39225 157.495 3.40625 160.369 5.43425C163.264 7.46225 164.711 10.4058 164.711 14.2649C164.711 16.4898 164.199 18.3898 163.175 19.965C162.151 21.5401 160.645 22.7018 158.656 23.45C160.901 24.0406 162.624 25.1432 163.825 26.7578C165.026 28.3723 165.626 30.3412 165.626 32.6646C165.626 36.8781 164.288 40.048 161.61 42.1745C158.952 44.2812 155.004 45.3543 149.767 45.3937H132.312ZM142.679 27.1122V37.4195H149.471C151.342 37.4195 152.779 36.9962 153.783 36.1496C154.787 35.2832 155.29 34.0723 155.29 32.5169C155.29 28.9334 153.508 27.1319 149.944 27.1122H142.679ZM142.679 20.3194H148.083C150.348 20.2997 151.962 19.8862 152.927 19.0789C153.892 18.2717 154.374 17.0805 154.374 15.5053C154.374 13.6939 153.852 12.3944 152.809 11.6068C151.765 10.7996 150.082 10.396 147.758 10.396H142.679V20.3194Z" fill="white"/>
  <path d="M128.099 29.0122C128.099 33.1879 124.714 36.5729 120.538 36.5729C116.362 36.5729 112.977 33.1879 112.977 29.0122C112.977 24.8366 116.362 21.4515 120.538 21.4515C124.714 21.4515 128.099 24.8366 128.099 29.0122Z" fill="url(#paint0_linear)"/>
  <defs>
    <linearGradient id="paint0_linear" x1="120.538" y1="21.4515" x2="120.538" y2="36.5729" gradientUnits="userSpaceOnUse">
      <stop stop-color="#11C1CC"/>
      <stop offset="1" stop-color="#2E92EF"/>
    </linearGradient>
  </defs>
</svg>
