<svg width="18" height="30" viewBox="0 0 18 30" fill="none" xmlns="http://www.w3.org/2000/svg">
<path d="M1.45726 23.658C3.00901 25.9777 5.65462 27.5024 8.65636 27.5024C9.3432 27.5024 10.0155 27.4226 10.6551 27.2701C12.3195 29.0162 14.638 29.9964 17.0293 29.9964C17.2364 29.9964 17.4399 29.9891 17.6471 29.9746C16.4878 29.1288 15.5211 27.9852 14.8743 26.5949C14.6817 26.1774 14.5218 25.7527 14.3982 25.3243C15.3649 24.4676 16.1389 23.3967 16.6477 22.1878C17.1201 21.3093 17.32 20.2711 17.3164 19.2619C17.3164 19.2038 17.3127 19.1493 17.3127 19.0912C17.28 17.8969 16.9929 16.7135 16.466 15.6389C16.0263 14.7386 15.4266 13.9255 14.9687 13.0397C14.9288 12.9635 14.8924 12.8872 14.8561 12.811C14.0275 11.1048 13.7223 9.14811 13.9912 7.2713C13.0427 8.29502 12.4758 9.65997 12.4104 11.0503C12.4031 11.2028 12.3995 11.3589 12.4067 11.5114C12.454 13.0687 13.1081 14.5571 13.1553 16.1145C13.1771 16.8623 13.0391 17.6573 12.5412 18.2164C11.9488 18.8879 10.9894 19.0767 10.0882 19.0767C10.0373 19.0767 9.99007 19.0767 9.94282 19.0767C9.31413 19.0622 8.63819 18.9642 8.17303 18.5394C7.5298 17.9586 7.47892 16.9676 7.61338 16.1145C7.92591 14.136 8.95436 12.3572 9.92829 10.6075C9.9828 10.5094 10.0373 10.4151 10.0882 10.317C11.004 8.65441 11.8689 6.91191 12.007 5.02783C12.1487 3.03485 11.2765 0.827686 9.45222 0C10.1173 1.78243 9.63029 3.82623 8.63456 5.44894C7.64246 7.07164 6.19609 8.35673 4.78607 9.63456C3.37969 10.916 1.9624 12.2447 1.06115 13.9182C0.290726 15.3449 -0.0399748 16.9567 0.00726815 18.5758C0.00363407 18.6665 0 18.7609 0 18.8553C0 20.6304 0.537843 22.2822 1.45726 23.658Z" fill="#EF372E"/>
</svg>
