<svg width="30" height="51" viewBox="0 0 30 51" fill="none" xmlns="http://www.w3.org/2000/svg">
<path d="M2.47735 40.2187C5.11532 44.1621 9.61285 46.7541 14.7158 46.7541C15.8834 46.7541 17.0264 46.6183 18.1137 46.3591C20.9432 49.3276 24.8847 50.9938 28.9498 50.9938C29.3019 50.9938 29.6479 50.9815 30 50.9568C28.0292 49.5189 26.3859 47.5749 25.2862 45.2113C24.9588 44.5016 24.687 43.7795 24.4769 43.0513C26.1203 41.5949 27.4362 39.7743 28.3011 37.7193C29.1042 36.2258 29.444 34.4608 29.4378 32.7452C29.4378 32.6464 29.4316 32.5538 29.4316 32.4551C29.376 30.4247 28.888 28.4129 27.9922 26.5862C27.2446 25.0557 26.2253 23.6733 25.4469 22.1675C25.3789 22.0379 25.3171 21.9083 25.2554 21.7787C23.8468 18.8781 23.3278 15.5518 23.785 12.3612C22.1726 14.1015 21.2088 16.422 21.0976 18.7856C21.0853 19.0448 21.0791 19.3101 21.0914 19.5693C21.1717 22.2168 22.2838 24.7471 22.3641 27.3946C22.4012 28.6659 22.1664 30.0174 21.32 30.9678C20.313 32.1095 18.682 32.4304 17.1499 32.4304C17.0634 32.4304 16.9831 32.4304 16.9028 32.4304C15.834 32.4057 14.6849 32.2391 13.8942 31.5171C12.8007 30.5296 12.7142 28.8449 12.9428 27.3946C13.4741 24.0312 15.2224 21.0073 16.8781 18.0327C16.9708 17.866 17.0634 17.7056 17.1499 17.539C18.7068 14.7125 20.1771 11.7502 20.4119 8.54731C20.6528 5.15925 19.1701 1.40707 16.0688 0C17.1993 3.03013 16.3715 6.5046 14.6787 9.26319C12.9922 12.0218 10.5334 14.2064 8.13633 16.3788C5.74547 18.5572 3.33608 20.8159 1.80395 23.6609C0.494234 26.0863 -0.0679572 28.8264 0.0123558 31.5788C0.00617792 31.7331 0 31.8935 0 32.054C0 35.0718 0.914333 37.8797 2.47735 40.2187Z" fill="url(#paint0_linear)"/>
<defs>
<linearGradient id="paint0_linear" x1="-24.1046" y1="30.408" x2="28.9762" y2="24.8471" gradientUnits="userSpaceOnUse">
<stop offset="0.014" stop-color="#EF372E"/>
<stop offset="0.9935" stop-color="#F1752C"/>
</linearGradient>
</defs>
</svg>
