<svg width="345" height="345" viewBox="0 0 345 345" fill="none" xmlns="http://www.w3.org/2000/svg">
<path d="M172.499 330.444C262.952 330.444 336.279 257.117 336.279 166.663C336.279 76.2098 262.952 2.88269 172.499 2.88269C82.0449 2.88269 8.71777 76.2098 8.71777 166.663C8.71777 257.117 82.0449 330.444 172.499 330.444Z" fill="black"/>
<path d="M93.4782 253.219C109.058 276.508 135.621 291.819 165.76 291.819C172.657 291.819 179.406 291.016 185.827 289.485C202.54 307.018 225.816 316.859 249.826 316.859C251.906 316.859 253.948 316.786 256.028 316.64C244.39 308.147 234.683 296.664 228.188 282.705C226.254 278.512 224.649 274.247 223.409 269.947C233.116 261.346 240.886 250.593 245.995 238.457C250.739 229.634 252.746 219.211 252.708 209.078C252.708 208.495 252.67 207.95 252.67 207.366C252.34 195.376 249.461 183.493 244.168 172.705C239.754 163.667 233.732 155.501 229.137 146.605C228.734 145.841 228.369 145.074 228.004 144.31C219.686 127.179 216.62 107.533 219.318 88.6895C209.795 98.9675 204.103 112.673 203.447 126.633C203.374 128.165 203.339 129.731 203.408 131.263C203.884 146.9 210.452 161.843 210.924 177.48C211.143 184.99 209.757 192.972 204.756 198.585C198.81 205.327 189.176 207.223 180.129 207.223C179.618 207.223 179.142 207.223 178.67 207.223C172.356 207.077 165.569 206.094 160.901 201.829C154.442 195.997 153.931 186.046 155.282 177.48C158.422 157.616 168.747 139.756 178.524 122.187C179.073 121.204 179.618 120.256 180.129 119.273C189.325 102.579 198.008 85.0839 199.394 66.1676C200.818 46.1572 192.059 23.9967 173.742 15.6849C180.417 33.5801 175.53 54.1011 165.531 70.3948C155.571 86.6885 141.05 99.589 126.89 112.42C112.769 125.285 98.5394 138.627 89.4888 155.428C81.7542 169.752 78.4339 185.935 78.9064 202.194C78.8684 203.104 78.8335 204.052 78.8335 205C78.8462 222.819 84.2468 239.405 93.4782 253.219Z" fill="url(#paint0_linear)"/>
<path d="M331.44 105.351C322.751 84.8079 310.313 66.3609 294.476 50.5238C278.636 34.6836 260.189 22.2493 239.649 13.5601C218.376 4.56338 195.785 0 172.502 0C149.219 0 126.624 4.56338 105.351 13.5601C84.8079 22.2493 66.3609 34.6868 50.5238 50.5238C34.6836 66.3641 22.2493 84.8111 13.5601 105.351C4.56338 126.624 0 149.215 0 172.502C0 195.785 4.56338 218.376 13.5601 239.649C22.2493 260.192 34.6868 278.639 50.5238 294.476C66.3609 310.313 84.8111 322.754 105.351 331.44C126.624 340.437 149.215 345 172.498 345C195.781 345 218.373 340.437 239.646 331.44C260.189 322.751 278.636 310.313 294.473 294.476C310.313 278.636 322.748 260.189 331.437 239.649C340.433 218.376 344.997 195.785 344.997 172.502C345 149.215 340.437 126.624 331.44 105.351ZM315.378 232.853C307.567 251.316 296.388 267.898 282.143 282.143C277.992 286.294 273.641 290.182 269.103 293.807C256.935 281.046 221.792 277.444 203.732 259.003C203.763 258.724 203.782 258.442 203.782 258.156C203.782 254.807 201.506 251.988 198.417 251.164L198.388 250.193C198.334 248.402 199.194 246.702 200.671 245.687C210.648 238.831 217 234.217 217 234.217C217 234.217 214.815 239.544 212.376 242.436C220.517 233.896 221.868 231.15 221.868 231.15C221.868 231.15 221.221 233.567 220.409 235.184C221.928 233.024 222.88 231.55 223.454 230.611C224.005 229.71 224.573 228.819 225.156 227.941C227.735 224.078 234.778 212.142 235.634 195.991C239.164 168.319 226.403 124.229 210.651 113.374C210.651 113.374 188.37 95.9864 172.112 104.311C143.111 97.1217 127.838 133.806 127.838 133.806C127.838 133.806 100.731 191.136 121.299 217.133C121.299 217.133 129.918 226.685 139.778 236.776C141.392 238.428 142.296 240.645 142.299 242.953L142.305 250.923C138.405 251.034 135.275 254.23 135.275 258.156C135.275 258.575 135.31 258.987 135.379 259.39C118.388 276.324 86.9104 280.605 73.0173 291.451C69.5131 288.511 66.1231 285.41 62.8567 282.143C48.6148 267.901 37.4331 251.316 29.6223 232.853C21.5389 213.743 17.4417 193.438 17.4417 172.502C17.4417 151.565 21.5389 131.257 29.6223 112.147C37.4331 93.6841 48.6116 77.1018 62.8567 62.8567C77.0987 48.6148 93.6841 37.4331 112.147 29.6223C131.257 21.5389 151.562 17.4417 172.502 17.4417C193.438 17.4417 213.743 21.5389 232.853 29.6223C251.316 37.4331 267.898 48.6116 282.143 62.8567C296.385 77.0987 307.567 93.6841 315.378 112.147C323.461 131.257 327.558 151.562 327.558 172.502C327.558 193.441 323.461 213.743 315.378 232.853Z" fill="black"/>
<path d="M315.378 232.853C307.567 251.316 296.389 267.898 282.143 282.143C277.992 286.294 273.641 290.182 269.103 293.807C256.935 281.046 221.792 277.443 203.732 259.003C203.764 258.724 203.783 258.442 203.783 258.156C203.783 254.807 201.506 251.988 198.417 251.164L198.388 250.193C198.335 248.401 199.194 246.702 200.672 245.687C210.648 238.831 217 234.217 217 234.217C217 234.217 214.815 239.544 212.377 242.436C220.517 233.896 221.868 231.15 221.868 231.15C221.868 231.15 221.221 233.567 220.409 235.184C221.928 233.024 222.88 231.55 223.454 230.611C224.006 229.71 224.573 228.819 225.157 227.941C227.735 224.078 234.778 212.142 235.634 195.991C239.164 168.319 226.403 124.229 210.652 113.374C210.652 113.374 188.371 95.9864 172.112 104.311C143.111 97.1217 127.838 133.806 127.838 133.806C127.838 133.806 100.731 191.136 121.299 217.133C121.299 217.133 129.919 226.685 139.778 236.776C141.392 238.428 142.296 240.645 142.299 242.953L142.305 250.923C138.405 251.034 135.275 254.23 135.275 258.156C135.275 258.575 135.31 258.987 135.379 259.39C118.388 276.324 86.9106 280.605 73.0175 291.451C69.5133 288.511 66.1233 285.41 62.8569 282.143C48.615 267.901 37.4333 251.316 29.6225 232.853C21.5391 213.743 17.4419 193.438 17.4419 172.502C17.4419 151.565 21.5391 131.257 29.6225 112.147C37.4333 93.6841 48.6118 77.1018 62.8569 62.8567C77.0989 48.6147 93.6843 37.433 112.147 29.6223C131.257 21.5389 151.562 17.4417 172.502 17.4417C193.438 17.4417 213.743 21.5389 232.853 29.6223C251.316 37.433 267.898 48.6116 282.143 62.8567C296.385 77.0986 307.567 93.6841 315.378 112.147C323.461 131.257 327.558 151.562 327.558 172.502C327.558 193.441 323.461 213.743 315.378 232.853Z" stroke="url(#paint1_linear)" stroke-width="4" stroke-miterlimit="10"/>
<defs>
<linearGradient id="paint0_linear" x1="78.8459" y1="166.27" x2="256.031" y2="166.27" gradientUnits="userSpaceOnUse">
<stop offset="0.014" stop-color="#E73A31"/>
<stop offset="0.9935" stop-color="#EE752F"/>
</linearGradient>
<linearGradient id="paint1_linear" x1="16.1734" y1="155.848" x2="328.827" y2="155.848" gradientUnits="userSpaceOnUse">
<stop offset="0.014" stop-color="#E73A31"/>
<stop offset="0.9935" stop-color="#EE752F"/>
</linearGradient>
</defs>
</svg>
