<svg width="345" height="345" viewBox="0 0 345 345" fill="none" xmlns="http://www.w3.org/2000/svg">
<path d="M171.576 335.807C262.029 335.807 335.356 262.479 335.356 172.026C335.356 81.5723 262.029 8.24512 171.576 8.24512C81.122 8.24512 7.79492 81.5723 7.79492 172.026C7.79492 262.479 81.122 335.807 171.576 335.807Z" fill="black"/>
<path d="M93.4782 253.219C109.058 276.508 135.621 291.819 165.76 291.819C172.657 291.819 179.406 291.016 185.827 289.485C202.54 307.018 225.816 316.859 249.826 316.859C251.906 316.859 253.948 316.786 256.028 316.64C244.39 308.147 234.683 296.664 228.188 282.704C226.254 278.512 224.649 274.247 223.409 269.947C233.116 261.346 240.886 250.593 245.995 238.457C250.739 229.634 252.746 219.21 252.708 209.078C252.708 208.495 252.67 207.949 252.67 207.366C252.34 195.376 249.461 183.493 244.168 172.704C239.754 163.667 233.732 155.501 229.137 146.605C228.734 145.841 228.369 145.074 228.004 144.309C219.686 127.178 216.62 107.533 219.318 88.6894C209.795 98.9673 204.103 112.673 203.447 126.633C203.374 128.165 203.339 129.731 203.408 131.263C203.884 146.9 210.452 161.843 210.924 177.48C211.143 184.99 209.757 192.972 204.756 198.585C198.81 205.327 189.176 207.223 180.129 207.223C179.618 207.223 179.142 207.223 178.67 207.223C172.356 207.077 165.569 206.094 160.901 201.829C154.442 195.997 153.931 186.046 155.282 177.48C158.422 157.616 168.747 139.756 178.524 122.187C179.073 121.204 179.618 120.256 180.129 119.273C189.325 102.579 198.008 85.0837 199.394 66.1674C200.818 46.157 192.059 23.9966 173.742 15.6848C180.417 33.58 175.53 54.1009 165.531 70.3947C155.571 86.6884 141.05 99.5889 126.89 112.42C112.769 125.285 98.5394 138.627 89.4888 155.428C81.7542 169.752 78.4339 185.935 78.9064 202.194C78.8684 203.104 78.8335 204.052 78.8335 205C78.8462 222.819 84.2468 239.405 93.4782 253.219Z" fill="url(#paint0_linear)"/>
<path d="M331.44 105.351C322.751 84.8079 310.313 66.3609 294.476 50.5238C278.636 34.6836 260.189 22.2493 239.649 13.5601C218.376 4.56338 195.785 0 172.502 0C149.219 0 126.624 4.56338 105.351 13.5601C84.8079 22.2493 66.3609 34.6868 50.5239 50.5238C34.6836 66.3641 22.2493 84.8111 13.5601 105.351C4.56338 126.624 0 149.215 0 172.502C0 195.788 4.56338 218.376 13.5601 239.649C22.2493 260.192 34.6868 278.639 50.5239 294.476C66.3641 310.316 84.8111 322.751 105.351 331.44C126.624 340.437 149.215 345 172.498 345C195.782 345 218.373 340.437 239.646 331.44C260.189 322.751 278.636 310.313 294.473 294.476C310.313 278.636 322.748 260.189 331.437 239.649C340.433 218.376 344.997 195.785 344.997 172.502C344.997 149.219 340.437 126.624 331.44 105.351ZM315.378 232.853C307.567 251.316 296.388 267.898 282.143 282.143C281.084 283.202 280.012 284.243 278.928 285.267C275.997 281.985 272.423 279.232 268.336 277.218C247.793 267.093 214.393 245.474 213.106 243.997C212.878 243.733 212.64 243.483 212.396 243.236C210.096 240.905 206.751 234.435 202.882 230.433H202.85L203.072 218.624C207.873 208.428 208.374 205.615 208.514 197.608C208.514 197.608 211.016 198.233 212.376 196.514C213.737 194.795 216.693 187.742 217.397 183.943C218.101 180.144 217.679 180.88 218.617 170.669C218.912 162.274 214.133 166.292 212.779 167.593C212.703 167.665 212.579 167.583 212.621 167.485C213.239 165.982 214.504 161.114 215.053 157.394C215.709 152.938 215.275 144.3 215.269 142.438C215.272 142.413 215.278 142.388 215.281 142.365C215.281 142.365 215.465 102.056 172.774 102.056C130.083 102.056 130.34 142.365 130.34 142.365C130.34 142.432 130.34 142.499 130.34 142.565C130.331 144.452 129.899 153.129 130.556 157.584C131.105 161.307 132.31 166.175 132.931 167.678C132.972 167.776 132.849 167.859 132.773 167.786C131.418 166.486 126.636 162.468 126.934 170.862C127.873 181.073 127.451 180.338 128.155 184.137C128.859 187.936 131.815 194.989 133.175 196.707C134.536 198.426 137.038 197.802 137.038 197.802C137.177 205.809 137.675 208.622 142.48 218.817L142.448 230.437H142.388C138.519 234.439 134.907 240.908 132.604 243.239C132.36 243.486 132.122 243.737 131.894 244C130.607 245.478 97.2105 267.096 76.6642 277.222C72.5765 279.235 69.0057 281.988 66.0723 285.27C64.9878 284.246 63.9159 283.206 62.8567 282.146C48.6148 267.905 37.4331 251.319 29.6224 232.856C21.5389 213.743 17.4417 193.438 17.4417 172.502C17.4417 151.565 21.5389 131.257 29.6224 112.147C37.4331 93.6841 48.6116 77.1018 62.8567 62.8567C77.0987 48.6148 93.6841 37.4331 112.147 29.6223C131.257 21.5389 151.562 17.4417 172.502 17.4417C193.441 17.4417 213.743 21.5389 232.853 29.6223C251.316 37.4331 267.898 48.6116 282.143 62.8567C296.385 77.0987 307.567 93.6841 315.378 112.147C323.461 131.257 327.558 151.562 327.558 172.502C327.558 193.441 323.461 213.743 315.378 232.853Z" fill="black"/>
<path d="M315.377 232.853C307.567 251.316 296.388 267.898 282.143 282.143C281.084 283.202 280.012 284.243 278.927 285.267C275.997 281.985 272.423 279.232 268.335 277.218C247.792 267.093 214.393 245.474 213.106 243.997C212.877 243.733 212.639 243.483 212.395 243.236C210.096 240.905 206.75 234.435 202.882 230.433H202.85L203.072 218.624C207.873 208.428 208.374 205.615 208.514 197.608C208.514 197.608 211.016 198.233 212.376 196.514C213.737 194.795 216.692 187.742 217.396 183.943C218.1 180.144 217.678 180.88 218.617 170.669C218.912 162.274 214.133 166.292 212.779 167.592C212.703 167.665 212.579 167.583 212.62 167.485C213.239 165.981 214.504 161.114 215.053 157.394C215.709 152.938 215.275 144.3 215.268 142.438C215.271 142.413 215.278 142.388 215.281 142.365C215.281 142.365 215.465 102.056 172.774 102.056C130.083 102.056 130.34 142.365 130.34 142.365C130.34 142.432 130.34 142.499 130.34 142.565C130.33 144.452 129.899 153.129 130.556 157.584C131.104 161.307 132.309 166.175 132.931 167.678C132.972 167.776 132.848 167.859 132.772 167.786C131.418 166.486 126.636 162.468 126.934 170.862C127.873 181.073 127.451 180.338 128.155 184.137C128.859 187.936 131.815 194.989 133.175 196.707C134.535 198.426 137.038 197.801 137.038 197.801C137.177 205.809 137.675 208.622 142.479 218.817L142.448 230.436H142.387C138.518 234.439 134.906 240.908 132.604 243.239C132.36 243.486 132.122 243.737 131.894 244C130.606 245.478 97.2102 267.096 76.6639 277.221C72.5762 279.235 69.0054 281.988 66.072 285.27C64.9875 284.246 63.9156 283.206 62.8564 282.146C48.6145 267.904 37.4328 251.319 29.6221 232.856C21.5386 213.743 17.4414 193.438 17.4414 172.502C17.4414 151.565 21.5386 131.257 29.6221 112.147C37.4328 93.6841 48.6113 77.1018 62.8564 62.8567C77.0984 48.6147 93.6838 37.433 112.147 29.6223C131.256 21.5389 151.562 17.4417 172.501 17.4417C193.441 17.4417 213.743 21.5389 232.853 29.6223C251.316 37.433 267.898 48.6116 282.143 62.8567C296.385 77.0986 307.567 93.6841 315.377 112.147C323.461 131.257 327.558 151.562 327.558 172.502C327.558 193.441 323.461 213.743 315.377 232.853Z" stroke="url(#paint1_linear)" stroke-width="4" stroke-miterlimit="10"/>
<defs>
<linearGradient id="paint0_linear" x1="78.8459" y1="166.27" x2="256.031" y2="166.27" gradientUnits="userSpaceOnUse">
<stop offset="0.014" stop-color="#E73A31"/>
<stop offset="0.9935" stop-color="#EE752F"/>
</linearGradient>
<linearGradient id="paint1_linear" x1="16.1729" y1="151.628" x2="328.826" y2="151.628" gradientUnits="userSpaceOnUse">
<stop offset="0.014" stop-color="#E73A31"/>
<stop offset="0.9935" stop-color="#EE752F"/>
</linearGradient>
</defs>
</svg>
